<svg xmlns="http://www.w3.org/2000/svg" version="1.0" width="122.000000" height="134.000000" preserveAspectRatio="xMidYMid meet"><rect id="backgroundrect" width="100%" height="100%" x="0" y="0" fill="none" stroke="none"/>
<metadata>
Created by potrace 1.13, written by Peter Selinger 2001-2015
</metadata>

<g class="currentLayer" style=""><title>Layer 1</title><g transform="translate(0,134) scale(0.10000000149011612,-0.10000000149011612) " fill="#ffffff" stroke="none" id="svg_1" class="" fill-opacity="1">
<path d="M958 1328 c-21 -7 -37 -29 -67 -91 l-40 -82 0 41 c-2 93 -40 132 -117 120 -62 -10 -73 -16 -87 -44 -16 -32 -15 -43 7 -142 9 -41 17 -95 17 -120 2 -95 -1 -160 -9 -160 -4 0 -21 34 -37 76 -17 41 -38 82 -48 92 -23 21 -77 21 -110 -1 -51 -33 -44 -89 33 -261 12 -27 31 -78 41 -113 18 -63 18 -65 -1 -96 -11 -18 -20 -42 -20 -55 0 -39 -18 -14 -26 34 -3 25 -29 89 -56 142 -40 79 -50 108 -53 157 -4 91 -15 131 -39 154 -40 38 -127 26 -141 -20 -7 -20 -8 -20 -39 10 -42 40 -87 42 -121 5 -14 -15 -25 -39 -25 -54 0 -35 112 -202 199 -295 49 -54 71 -86 71 -107 0 -14 -15 -9 -87 28 -115 58 -137 61 -174 24 -33 -32 -37 -66 -14 -110 11 -21 40 -41 107 -74 51 -24 114 -60 139 -79 39 -30 49 -45 67 -104 11 -37 26 -97 33 -131 12 -63 30 -85 51 -64 12 12 -25 193 -53 259 -22 52 -71 89 -206 158 -82 42 -98 54 -101 76 -2 14 4 31 13 39 13 11 31 5 119 -40 88 -44 107 -50 125 -41 52 28 35 100 -44 186 -74 82 -197 261 -193 283 7 37 40 25 100 -40 55 -58 60 -62 73 -45 9 13 11 27 4 50 -5 18 -9 33 -9 34 0 13 34 29 54 26 29 -6 37 -30 41 -129 3 -62 9 -82 48 -155 25 -46 50 -102 56 -124 5 -22 15 -61 22 -87 15 -61 43 -92 69 -78 11 6 22 21 25 33 6 24 13 66 14 82 3 28 18 36 43 24 25 -11 25 -12 14 -63 -7 -28 -19 -65 -28 -81 -8 -17 -30 -59 -48 -94 -31 -61 -33 -67 -27 -147 6 -87 18 -124 41 -124 21 0 26 24 14 66 -19 69 -6 152 35 220 43 73 78 189 66 221 -5 13 -23 32 -40 42 -18 11 -34 29 -36 39 -5 33 -49 162 -88 255 -36 88 -39 120 -9 131 18 7 54 -10 54 -25 0 -6 19 -53 41 -105 28 -63 48 -96 62 -100 23 -7 46 17 48 50 1 12 3 35 4 51 9 90 4 199 -10 270 -9 44 -18 87 -20 96 -6 28 12 42 59 46 42 5 46 3 52 -21 3 -14 4 -62 2 -106 -7 -142 36 -133 112 24 27 57 57 109 65 116 18 15 82 7 102 -13 12 -11 11 -17 -5 -38 -10 -13 -39 -58 -63 -99 -24 -41 -58 -96 -76 -123 -61 -92 -10 -165 72 -102 31 23 126 46 153 37 18 -6 15 -47 -5 -70 -10 -12 -35 -23 -56 -26 -59 -9 -107 -39 -167 -102 -109 -115 -136 -166 -105 -198 19 -18 34 -18 134 8 74 20 86 17 95 -19 7 -26 -9 -59 -23 -50 -4 2 -56 -7 -117 -21 -133 -30 -173 -54 -208 -126 -25 -53 -29 -68 -42 -163 -3 -27 -8 -58 -9 -67 -5 -23 22 -45 37 -30 6 6 17 55 24 108 15 109 46 174 94 199 16 8 80 24 142 36 134 26 160 44 152 106 -11 86 -57 106 -166 74 -50 -14 -68 -16 -68 -7 0 7 32 48 72 91 73 78 129 114 179 115 14 0 38 11 53 25 49 45 60 111 25 146 -19 19 -30 21 -90 17 -49 -4 -80 -13 -112 -32 -56 -32 -56 -21 5 70 41 62 68 106 120 197 15 27 16 33 2 59 -25 49 -101 70 -166 46z" id="svg_2" fill="#ffffff" fill-opacity="1"/>
</g></g></svg>